<?xml version="1.0" encoding="UTF-8"?>
<svg width="500px" height="200px" viewBox="0 0 500 200" version="1.1" xmlns="http://www.w3.org/2000/svg" xmlns:xlink="http://www.w3.org/1999/xlink">
    <!-- Generator: Sketch 41 (35326) - http://www.bohemiancoding.com/sketch -->
    <title>ferrico</title>
    <desc>Created with Sketch.</desc>
    <defs>
        <rect id="path-1" x="0" y="0" width="500" height="200"></rect>
        <mask id="mask-2" maskContentUnits="userSpaceOnUse" maskUnits="objectBoundingBox" x="0" y="0" width="500" height="200" fill="white">
            <use xlink:href="#path-1"></use>
        </mask>
    </defs>
    <g id="Symbols" stroke="none" stroke-width="1" fill="none" fill-rule="evenodd">
        <g id="ferrico">
            <path d="M79.0175781,124 L79.0175781,85.4599609 L66.5371094,85.4599609 L66.5371094,76.4511719 L79.0175781,76.4511719 L79.0175781,73.8583984 C79.0175781,70.7236171 79.51562,67.9550901 80.5117188,65.5527344 C81.5078175,63.1503786 82.9287017,61.1289145 84.7744141,59.4882812 C86.6201264,57.847648 88.8613149,56.6098675 91.4980469,55.7749023 C94.1347788,54.9399372 97.0790853,54.5224609 100.331055,54.5224609 C101.35645,54.5224609 102.34521,54.5590817 103.297363,54.6323242 C104.249516,54.7055668 105.179683,54.8007807 106.087891,54.9179688 C106.996098,55.0351568 107.911616,55.1669915 108.834473,55.3134766 C109.757329,55.4599617 110.716792,55.6210929 111.712891,55.796875 L110.921875,65.3769531 C109.808588,65.142577 108.548835,64.9375009 107.142578,64.7617188 C105.736321,64.5859366 104.081064,64.4980469 102.176758,64.4980469 C98.368145,64.4980469 95.599618,65.3037029 93.8710938,66.9150391 C92.1425695,68.5263752 91.2783203,70.8408052 91.2783203,73.8583984 L91.2783203,76.4511719 L108.416992,76.4511719 L108.416992,85.4599609 L91.2783203,85.4599609 L91.2783203,124 L79.0175781,124 Z M144.276367,124.878906 C140.61424,124.878906 137.289077,124.278326 134.300781,123.077148 C131.312485,121.875971 128.749034,120.242686 126.610352,118.177246 C124.471669,116.111806 122.823736,113.68019 121.666504,110.882324 C120.509272,108.084459 119.930664,105.088883 119.930664,101.895508 L119.930664,100.137695 C119.930664,96.5048646 120.501947,93.1870267 121.644531,90.184082 C122.787115,87.1811373 124.383779,84.595714 126.43457,82.4277344 C128.485362,80.2597548 130.916978,78.5752013 133.729492,77.3740234 C136.542006,76.1728456 139.603499,75.5722656 142.914062,75.5722656 C146.341814,75.5722656 149.395983,76.1362248 152.07666,77.2641602 C154.757338,78.3920955 157.027823,79.9814351 158.888184,82.0322266 C160.748544,84.0830181 162.162105,86.5512551 163.128906,89.4370117 C164.095708,92.3227683 164.579102,95.5087716 164.579102,98.9951172 L164.579102,104.180664 L132.323242,104.180664 C132.557618,105.792 133.033688,107.264153 133.751465,108.597168 C134.469242,109.930182 135.38476,111.080073 136.498047,112.046875 C137.611334,113.013677 138.885735,113.76074 140.321289,114.288086 C141.756843,114.815432 143.32421,115.079102 145.023438,115.079102 C146.224615,115.079102 147.418451,114.961915 148.60498,114.727539 C149.79151,114.493163 150.926752,114.148928 152.010742,113.694824 C153.094732,113.24072 154.105464,112.676761 155.042969,112.00293 C155.980473,111.329098 156.800778,110.53809 157.503906,109.629883 L163.612305,116.22168 C162.850582,117.305669 161.861822,118.367671 160.645996,119.407715 C159.43017,120.447759 157.994637,121.370601 156.339355,122.17627 C154.684074,122.981938 152.845713,123.633787 150.824219,124.131836 C148.802724,124.629885 146.620129,124.878906 144.276367,124.878906 Z M142.826172,85.4599609 C141.449212,85.4599609 140.189459,85.7016577 139.046875,86.1850586 C137.904291,86.6684594 136.900883,87.3642533 136.036621,88.2724609 C135.172359,89.1806686 134.447269,90.2646421 133.861328,91.5244141 C133.275388,92.784186 132.835939,94.1904219 132.542969,95.7431641 L152.582031,95.7431641 L152.582031,94.7763672 C152.523437,93.4872982 152.274416,92.2714901 151.834961,91.1289062 C151.395506,89.9863224 150.765629,88.9975628 149.945312,88.1625977 C149.124996,87.3276325 148.121588,86.6684594 146.935059,86.1850586 C145.748529,85.7016577 144.378914,85.4599609 142.826172,85.4599609 Z M209.359375,75.5722656 C211.205087,75.5722656 212.911613,75.6967761 214.479004,75.9458008 C216.046395,76.1948255 217.313472,76.4658188 218.280273,76.7587891 L216.478516,88.9316406 C214.867179,88.5507793 213.219247,88.2651377 211.534668,88.074707 C209.850089,87.8842764 208.246101,87.7890625 206.722656,87.7890625 C203.294905,87.7890625 200.54835,88.4482356 198.48291,89.7666016 C196.41747,91.0849675 194.872075,92.9745971 193.84668,95.4355469 L193.84668,124 L181.629883,124 L181.629883,76.4511719 L193.011719,76.4511719 L193.583008,84.2294922 C195.516611,81.5341662 197.831041,79.4174882 200.526367,77.8793945 C203.221693,76.3413009 206.166,75.5722656 209.359375,75.5722656 Z M263.368164,75.5722656 C265.213876,75.5722656 266.920402,75.6967761 268.487793,75.9458008 C270.055184,76.1948255 271.322261,76.4658188 272.289062,76.7587891 L270.487305,88.9316406 C268.875969,88.5507793 267.228036,88.2651377 265.543457,88.074707 C263.858878,87.8842764 262.25489,87.7890625 260.731445,87.7890625 C257.303694,87.7890625 254.557139,88.4482356 252.491699,89.7666016 C250.426259,91.0849675 248.880865,92.9745971 247.855469,95.4355469 L247.855469,124 L235.638672,124 L235.638672,76.4511719 L247.020508,76.4511719 L247.591797,84.2294922 C249.5254,81.5341662 251.83983,79.4174882 254.535156,77.8793945 C257.230482,76.3413009 260.174789,75.5722656 263.368164,75.5722656 Z M286.483398,76.4511719 L312.367188,76.4511719 L312.367188,114.068359 L325.243164,114.068359 L325.243164,124 L286.483398,124 L286.483398,114.068359 L300.018555,114.068359 L300.018555,86.4267578 L286.483398,86.4267578 L286.483398,76.4511719 Z M299.139648,64.2783203 C299.139648,63.3408156 299.308104,62.4692423 299.64502,61.6635742 C299.981935,60.8579061 300.458005,60.1694365 301.073242,59.5981445 C301.68848,59.0268526 302.428218,58.5800797 303.29248,58.2578125 C304.156743,57.9355453 305.116206,57.7744141 306.170898,57.7744141 C308.338878,57.7744141 310.060052,58.3823181 311.334473,59.5981445 C312.608893,60.8139709 313.246094,62.3740139 313.246094,64.2783203 C313.246094,66.1826267 312.608893,67.7426697 311.334473,68.9584961 C310.060052,70.1743225 308.338878,70.7822266 306.170898,70.7822266 C305.116206,70.7822266 304.156743,70.6210954 303.29248,70.2988281 C302.428218,69.9765609 301.68848,69.529788 301.073242,68.9584961 C300.458005,68.3872042 299.981935,67.6987345 299.64502,66.8930664 C299.308104,66.0873983 299.139648,65.215825 299.139648,64.2783203 Z M358.290039,115.123047 C359.491217,115.123047 360.633784,114.947267 361.717773,114.595703 C362.801763,114.244139 363.753902,113.746097 364.574219,113.101562 C365.394535,112.457028 366.031736,111.680669 366.48584,110.772461 C366.939944,109.864253 367.137696,108.853521 367.079102,107.740234 L378.592773,107.740234 C378.651367,110.201184 378.146001,112.486318 377.07666,114.595703 C376.007319,116.705089 374.549814,118.521477 372.704102,120.044922 C370.858389,121.568367 368.712415,122.762203 366.266113,123.626465 C363.819812,124.490727 361.234389,124.922852 358.509766,124.922852 C354.818341,124.922852 351.581069,124.300299 348.797852,123.055176 C346.014635,121.810052 343.69288,120.103526 341.83252,117.935547 C339.972159,115.767567 338.565923,113.226089 337.61377,110.311035 C336.661616,107.395982 336.185547,104.268571 336.185547,100.928711 L336.185547,99.6103516 C336.185547,96.2704911 336.654292,93.143081 337.591797,90.2280273 C338.529302,87.3129737 339.935538,84.7714952 341.810547,82.6035156 C343.685556,80.435536 346.00731,78.721686 348.775879,77.4619141 C351.544447,76.2021421 354.759747,75.5722656 358.421875,75.5722656 C361.351577,75.5722656 364.061511,76.0117144 366.551758,76.890625 C369.042005,77.7695356 371.187979,79.0073162 372.989746,80.6040039 C374.791513,82.2006916 376.190425,84.134266 377.186523,86.4047852 C378.182622,88.6753043 378.651367,91.2167828 378.592773,94.0292969 L367.079102,94.0292969 C367.137696,92.857416 366.961916,91.7441459 366.551758,90.6894531 C366.1416,89.6347604 365.54102,88.7265663 364.75,87.9648438 C363.95898,87.2031212 363.006842,86.5952171 361.893555,86.1411133 C360.780268,85.6870094 359.56446,85.4599609 358.246094,85.4599609 C356.31249,85.4599609 354.715827,85.8554648 353.456055,86.6464844 C352.196283,87.437504 351.192875,88.4921809 350.445801,89.8105469 C349.698727,91.1289128 349.171388,92.6376868 348.86377,94.3369141 C348.556151,96.0361413 348.402344,97.7939362 348.402344,99.6103516 L348.402344,100.928711 C348.402344,102.774423 348.548827,104.554191 348.841797,106.268066 C349.134767,107.981942 349.654781,109.490716 350.401855,110.794434 C351.14893,112.098151 352.159662,113.145504 353.434082,113.936523 C354.708502,114.727543 356.327139,115.123047 358.290039,115.123047 Z M389.579102,99.7861328 C389.579102,96.3290843 390.077143,93.1284327 391.073242,90.184082 C392.069341,87.2397314 393.526846,84.6836046 395.445801,82.515625 C397.364756,80.3476454 399.708482,78.6484437 402.477051,77.4179688 C405.245619,76.1874938 408.416974,75.5722656 411.991211,75.5722656 C415.565448,75.5722656 418.744127,76.1874938 421.527344,77.4179688 C424.310561,78.6484437 426.661611,80.3476454 428.580566,82.515625 C430.499521,84.6836046 431.957026,87.2397314 432.953125,90.184082 C433.949224,93.1284327 434.447266,96.3290843 434.447266,99.7861328 L434.447266,100.708984 C434.447266,104.19533 433.949224,107.41063 432.953125,110.35498 C431.957026,113.299331 430.506845,115.855458 428.602539,118.023438 C426.698233,120.191417 424.354506,121.883295 421.571289,123.099121 C418.788072,124.314947 415.624041,124.922852 412.079102,124.922852 C408.504865,124.922852 405.318862,124.314947 402.520996,123.099121 C399.723131,121.883295 397.364756,120.191417 395.445801,118.023438 C393.526846,115.855458 392.069341,113.299331 391.073242,110.35498 C390.077143,107.41063 389.579102,104.19533 389.579102,100.708984 L389.579102,99.7861328 Z M401.795898,100.708984 C401.795898,102.701182 401.986326,104.568839 402.367188,106.312012 C402.748049,108.055184 403.348629,109.578607 404.168945,110.882324 C404.989262,112.186042 406.051263,113.218746 407.35498,113.980469 C408.658698,114.742191 410.233389,115.123047 412.079102,115.123047 C413.86622,115.123047 415.40429,114.742191 416.693359,113.980469 C417.982428,113.218746 419.029781,112.186042 419.835449,110.882324 C420.641117,109.578607 421.234373,108.055184 421.615234,106.312012 C421.996096,104.568839 422.186523,102.701182 422.186523,100.708984 L422.186523,99.7861328 C422.186523,97.8525294 421.996096,96.021493 421.615234,94.2929688 C421.234373,92.5644445 420.641117,91.0410222 419.835449,89.7226562 C419.029781,88.4042903 417.982428,87.3642616 416.693359,86.6025391 C415.40429,85.8408165 413.836923,85.4599609 411.991211,85.4599609 C410.174796,85.4599609 408.622077,85.8408165 407.333008,86.6025391 C406.043939,87.3642616 404.989262,88.4042903 404.168945,89.7226562 C403.348629,91.0410222 402.748049,92.5644445 402.367188,94.2929688 C401.986326,96.021493 401.795898,97.8525294 401.795898,99.7861328 L401.795898,100.708984 Z" id="ferrico-copy" fill="#FAFAFA"></path>
            <use id="Rectangle-2" stroke="#FAFAFA" mask="url(#mask-2)" stroke-width="10" xlink:href="#path-1"></use>
        </g>
    </g>
</svg>